<mxfile host="app.diagrams.net" agent="Mozilla/5.0 (Windows NT 10.0; Win64; x64) AppleWebKit/537.36 (KHTML, like Gecko) Chrome/132.0.0.0 Safari/537.36 OPR/117.0.0.0" version="26.1.3">
  <diagram name="Página-1" id="5FcPbQmbv3Z2ORSv2xfs">
    <mxGraphModel dx="1150" dy="1784" grid="1" gridSize="10" guides="1" tooltips="1" connect="1" arrows="1" fold="1" page="1" pageScale="1" pageWidth="827" pageHeight="1169" math="0" shadow="0">
      <root>
        <mxCell id="0" />
        <mxCell id="1" parent="0" />
        <mxCell id="3IGS26uAFQO8T-M1BvDF-31" style="edgeStyle=orthogonalEdgeStyle;rounded=0;orthogonalLoop=1;jettySize=auto;html=1;entryX=0.5;entryY=0;entryDx=0;entryDy=0;endArrow=none;startFill=0;" edge="1" parent="1" source="3IGS26uAFQO8T-M1BvDF-32" target="3IGS26uAFQO8T-M1BvDF-23">
          <mxGeometry relative="1" as="geometry" />
        </mxCell>
        <mxCell id="3IGS26uAFQO8T-M1BvDF-1" value="Visitante" style="shape=umlActor;verticalLabelPosition=bottom;verticalAlign=top;html=1;outlineConnect=0;" vertex="1" parent="1">
          <mxGeometry x="80" y="-644" width="30" height="60" as="geometry" />
        </mxCell>
        <mxCell id="3IGS26uAFQO8T-M1BvDF-2" value="Usuário" style="shape=umlActor;verticalLabelPosition=bottom;verticalAlign=top;html=1;outlineConnect=0;" vertex="1" parent="1">
          <mxGeometry x="90" y="40" width="30" height="60" as="geometry" />
        </mxCell>
        <mxCell id="3IGS26uAFQO8T-M1BvDF-4" style="edgeStyle=orthogonalEdgeStyle;rounded=0;orthogonalLoop=1;jettySize=auto;html=1;endArrow=none;startFill=0;" edge="1" parent="1" source="3IGS26uAFQO8T-M1BvDF-3" target="3IGS26uAFQO8T-M1BvDF-5">
          <mxGeometry relative="1" as="geometry">
            <mxPoint x="310" y="560" as="targetPoint" />
          </mxGeometry>
        </mxCell>
        <mxCell id="3IGS26uAFQO8T-M1BvDF-9" style="edgeStyle=orthogonalEdgeStyle;rounded=0;orthogonalLoop=1;jettySize=auto;html=1;strokeWidth=1;endArrow=none;startFill=0;" edge="1" parent="1" source="3IGS26uAFQO8T-M1BvDF-5">
          <mxGeometry relative="1" as="geometry">
            <mxPoint x="210" y="480" as="targetPoint" />
          </mxGeometry>
        </mxCell>
        <mxCell id="3IGS26uAFQO8T-M1BvDF-12" style="edgeStyle=orthogonalEdgeStyle;rounded=0;orthogonalLoop=1;jettySize=auto;html=1;endArrow=none;startFill=0;" edge="1" parent="1" source="3IGS26uAFQO8T-M1BvDF-3">
          <mxGeometry relative="1" as="geometry">
            <mxPoint x="1032" y="190" as="targetPoint" />
            <Array as="points">
              <mxPoint x="105" y="670" />
              <mxPoint x="1032" y="670" />
              <mxPoint x="1032" y="190" />
            </Array>
          </mxGeometry>
        </mxCell>
        <mxCell id="3IGS26uAFQO8T-M1BvDF-3" value="Administrador" style="shape=umlActor;verticalLabelPosition=bottom;verticalAlign=top;html=1;outlineConnect=0;" vertex="1" parent="1">
          <mxGeometry x="90" y="530" width="30" height="60" as="geometry" />
        </mxCell>
        <mxCell id="3IGS26uAFQO8T-M1BvDF-34" style="edgeStyle=orthogonalEdgeStyle;rounded=0;orthogonalLoop=1;jettySize=auto;html=1;endArrow=none;startFill=0;" edge="1" parent="1" source="3IGS26uAFQO8T-M1BvDF-6" target="3IGS26uAFQO8T-M1BvDF-35">
          <mxGeometry relative="1" as="geometry">
            <mxPoint x="830" y="-95" as="targetPoint" />
          </mxGeometry>
        </mxCell>
        <mxCell id="3IGS26uAFQO8T-M1BvDF-6" value="Produto" style="ellipse;whiteSpace=wrap;html=1;" vertex="1" parent="1">
          <mxGeometry x="530" y="-130" width="120" height="70" as="geometry" />
        </mxCell>
        <mxCell id="3IGS26uAFQO8T-M1BvDF-8" value="Atualização" style="ellipse;whiteSpace=wrap;html=1;" vertex="1" parent="1">
          <mxGeometry x="150" y="400" width="120" height="80" as="geometry" />
        </mxCell>
        <mxCell id="3IGS26uAFQO8T-M1BvDF-11" value="" style="edgeStyle=orthogonalEdgeStyle;rounded=0;orthogonalLoop=1;jettySize=auto;html=1;strokeWidth=1;endArrow=none;startFill=0;" edge="1" parent="1" source="3IGS26uAFQO8T-M1BvDF-3" target="3IGS26uAFQO8T-M1BvDF-5">
          <mxGeometry relative="1" as="geometry">
            <mxPoint x="210" y="480" as="targetPoint" />
            <mxPoint x="120" y="560" as="sourcePoint" />
          </mxGeometry>
        </mxCell>
        <mxCell id="3IGS26uAFQO8T-M1BvDF-5" value="Cadastro" style="ellipse;whiteSpace=wrap;html=1;" vertex="1" parent="1">
          <mxGeometry x="230" y="520" width="120" height="80" as="geometry" />
        </mxCell>
        <mxCell id="3IGS26uAFQO8T-M1BvDF-13" value="Gerenciamento" style="ellipse;whiteSpace=wrap;html=1;" vertex="1" parent="1">
          <mxGeometry x="150" y="630" width="120" height="80" as="geometry" />
        </mxCell>
        <mxCell id="3IGS26uAFQO8T-M1BvDF-30" style="edgeStyle=orthogonalEdgeStyle;rounded=0;orthogonalLoop=1;jettySize=auto;html=1;endArrow=none;startFill=0;" edge="1" parent="1" source="3IGS26uAFQO8T-M1BvDF-16" target="3IGS26uAFQO8T-M1BvDF-6">
          <mxGeometry relative="1" as="geometry" />
        </mxCell>
        <mxCell id="3IGS26uAFQO8T-M1BvDF-16" value="Categorias" style="ellipse;whiteSpace=wrap;html=1;" vertex="1" parent="1">
          <mxGeometry x="530" y="-290" width="120" height="80" as="geometry" />
        </mxCell>
        <mxCell id="3IGS26uAFQO8T-M1BvDF-29" style="edgeStyle=orthogonalEdgeStyle;rounded=0;orthogonalLoop=1;jettySize=auto;html=1;entryX=0.5;entryY=0;entryDx=0;entryDy=0;endArrow=none;startFill=0;" edge="1" parent="1" source="3IGS26uAFQO8T-M1BvDF-23" target="3IGS26uAFQO8T-M1BvDF-16">
          <mxGeometry relative="1" as="geometry" />
        </mxCell>
        <mxCell id="3IGS26uAFQO8T-M1BvDF-23" value="Catálogo" style="ellipse;whiteSpace=wrap;html=1;" vertex="1" parent="1">
          <mxGeometry x="530" y="-440" width="120" height="80" as="geometry" />
        </mxCell>
        <mxCell id="3IGS26uAFQO8T-M1BvDF-33" value="" style="edgeStyle=orthogonalEdgeStyle;rounded=0;orthogonalLoop=1;jettySize=auto;html=1;entryX=0.5;entryY=0;entryDx=0;entryDy=0;endArrow=none;startFill=0;" edge="1" parent="1" source="3IGS26uAFQO8T-M1BvDF-1" target="3IGS26uAFQO8T-M1BvDF-32">
          <mxGeometry relative="1" as="geometry">
            <mxPoint x="110" y="-614" as="sourcePoint" />
            <mxPoint x="590" y="-440" as="targetPoint" />
          </mxGeometry>
        </mxCell>
        <mxCell id="3IGS26uAFQO8T-M1BvDF-32" value="Pesquisas" style="ellipse;whiteSpace=wrap;html=1;" vertex="1" parent="1">
          <mxGeometry x="530" y="-590" width="120" height="80" as="geometry" />
        </mxCell>
        <mxCell id="3IGS26uAFQO8T-M1BvDF-36" style="edgeStyle=orthogonalEdgeStyle;rounded=0;orthogonalLoop=1;jettySize=auto;html=1;endArrow=none;startFill=0;" edge="1" parent="1" source="3IGS26uAFQO8T-M1BvDF-35" target="3IGS26uAFQO8T-M1BvDF-37">
          <mxGeometry relative="1" as="geometry">
            <mxPoint x="1020" y="-95" as="targetPoint" />
          </mxGeometry>
        </mxCell>
        <mxCell id="3IGS26uAFQO8T-M1BvDF-35" value="Adicionar" style="ellipse;whiteSpace=wrap;html=1;" vertex="1" parent="1">
          <mxGeometry x="750" y="-135" width="120" height="80" as="geometry" />
        </mxCell>
        <mxCell id="3IGS26uAFQO8T-M1BvDF-37" value="Carrinho" style="ellipse;whiteSpace=wrap;html=1;" vertex="1" parent="1">
          <mxGeometry x="960" y="-135" width="120" height="80" as="geometry" />
        </mxCell>
      </root>
    </mxGraphModel>
  </diagram>
</mxfile>
